<svg width="4096" height="4096" viewBox="0 0 4096 4096" fill="none" xmlns="http://www.w3.org/2000/svg">
<g clip-path="url(#clip0_101_47)">
<path d="M1319 839H2420C2709.95 839 2945 1074.05 2945 1364V3088C2945 3181.34 2869.34 3257 2776 3257H1319C1225.66 3257 1150 3181.34 1150 3088V1008C1150 914.664 1225.66 839 1319 839Z" stroke="#202020" stroke-width="150"/>
<line x1="1721.07" y1="2175.86" x2="1721.07" y2="2531.37" stroke="#1888B9" stroke-width="100" stroke-linecap="round"/>
<line x1="2063.07" y1="1822.21" x2="2063.07" y2="2531.37" stroke="#1888B9" stroke-width="100" stroke-linecap="round"/>
<line x1="2405.07" y1="2355.59" x2="2405.07" y2="2531.37" stroke="#1888B9" stroke-width="100" stroke-linecap="round"/>
<path d="M1877 2005.8C1877 2100.24 1800.44 2176.8 1706 2176.8C1611.56 2176.8 1535 2100.24 1535 2005.8C1535 1911.36 1611.56 1834.8 1706 1834.8C1800.44 1834.8 1877 1911.36 1877 2005.8ZM1623.96 2005.8C1623.96 2051.11 1660.69 2087.84 1706 2087.84C1751.31 2087.84 1788.04 2051.11 1788.04 2005.8C1788.04 1960.49 1751.31 1923.75 1706 1923.75C1660.69 1923.75 1623.96 1960.49 1623.96 2005.8Z" fill="#1888B9"/>
<path d="M2219 1685.62C2219 1780.07 2142.44 1856.62 2048 1856.62C1953.56 1856.62 1877 1780.07 1877 1685.62C1877 1591.18 1953.56 1514.62 2048 1514.62C2142.44 1514.62 2219 1591.18 2219 1685.62ZM1965.96 1685.62C1965.96 1730.94 2002.69 1767.67 2048 1767.67C2093.31 1767.67 2130.04 1730.94 2130.04 1685.62C2130.04 1640.31 2093.31 1603.58 2048 1603.58C2002.69 1603.58 1965.96 1640.31 1965.96 1685.62Z" fill="#1888B9"/>
<path d="M2561 2176.8C2561 2271.24 2484.44 2347.8 2390 2347.8C2295.56 2347.8 2219 2271.24 2219 2176.8C2219 2082.36 2295.56 2005.8 2390 2005.8C2484.44 2005.8 2561 2082.36 2561 2176.8ZM2307.96 2176.8C2307.96 2222.11 2344.69 2258.84 2390 2258.84C2435.31 2258.84 2472.04 2222.11 2472.04 2176.8C2472.04 2131.49 2435.31 2094.75 2390 2094.75C2344.69 2094.75 2307.96 2131.49 2307.96 2176.8Z" fill="#1888B9"/>
<line x1="1383" y1="3528" x2="2713" y2="3528" stroke="#1888B9" stroke-width="150" stroke-linecap="round"/>
</g>
<defs>
<clipPath id="clip0_101_47">
<rect width="4096" height="4096" fill="white"/>
</clipPath>
</defs>
</svg>
