<svg width="4096" height="4096" viewBox="0 0 4096 4096" fill="none" xmlns="http://www.w3.org/2000/svg">
<g clip-path="url(#clip0_101_14)">
<path d="M1319 839H2420C2709.95 839 2945 1074.05 2945 1364V3088C2945 3181.34 2869.34 3257 2776 3257H1319C1225.66 3257 1150 3181.34 1150 3088V1008C1150 914.664 1225.66 839 1319 839Z" stroke="#202020" stroke-width="150"/>
<path d="M1811.5 2115.28L1969.37 2261.99C2013.5 2303 2081.8 2303 2125.93 2261.99L2283.8 2115.28L2137.1 2273.15C2096.09 2317.28 2096.09 2385.59 2137.1 2429.72L2283.8 2587.59L2125.93 2440.88C2081.8 2399.87 2013.5 2399.87 1969.37 2440.88L1811.5 2587.59L1958.2 2429.72C1999.21 2385.59 1999.21 2317.28 1958.2 2273.15L1811.5 2115.28Z" fill="#FF7F7F"/>
<path d="M1507.22 1811.64L1665.09 1958.35C1709.22 1999.36 1777.53 1999.36 1821.66 1958.35L1979.53 1811.64L1832.82 1969.51C1791.81 2013.65 1791.81 2081.95 1832.82 2126.08L1979.53 2283.95L1821.66 2137.24C1777.53 2096.23 1709.22 2096.23 1665.09 2137.24L1507.22 2283.95L1653.93 2126.08C1694.94 2081.95 1694.94 2013.65 1653.93 1969.51L1507.22 1811.64Z" fill="#FF7F7F"/>
<path d="M1811.7 1507.16L1969.57 1653.87C2013.7 1694.88 2082 1694.88 2126.14 1653.87L2284.01 1507.16L2137.3 1665.03C2096.29 1709.16 2096.29 1777.47 2137.3 1821.6L2284.01 1979.47L2126.14 1832.76C2082 1791.75 2013.7 1791.75 1969.57 1832.76L1811.7 1979.47L1958.4 1821.6C1999.42 1777.47 1999.42 1709.16 1958.4 1665.03L1811.7 1507.16Z" fill="#FF7F7F"/>
<path d="M2115.54 1811.64L2273.41 1958.35C2317.54 1999.36 2385.84 1999.36 2429.98 1958.35L2587.85 1811.64L2441.14 1969.51C2400.13 2013.65 2400.13 2081.95 2441.14 2126.08L2587.85 2283.95L2429.98 2137.24C2385.84 2096.23 2317.54 2096.23 2273.41 2137.24L2115.54 2283.95L2262.24 2126.08C2303.26 2081.95 2303.26 2013.65 2262.24 1969.51L2115.54 1811.64Z" fill="#FF7F7F"/>
<path d="M1984.57 1803.93C2019.32 1769.18 2075.68 1769.18 2110.43 1803.93L2291.07 1984.57C2325.82 2019.32 2325.82 2075.68 2291.07 2110.43L2110.43 2291.07C2075.68 2325.82 2019.32 2325.82 1984.57 2291.07L1803.93 2110.43C1769.18 2075.68 1769.18 2019.32 1803.93 1984.57L1984.57 1803.93Z" fill="#FF7F7F"/>
<line x1="1352" y1="3452" x2="2732" y2="3452" stroke="#FF8080" stroke-width="100" stroke-linecap="round"/>
</g>
<defs>
<clipPath id="clip0_101_14">
<rect width="4096" height="4096" fill="white"/>
</clipPath>
</defs>
</svg>
