<svg width="6400" height="1600" viewBox="0 0 6400 1600" fill="none" xmlns="http://www.w3.org/2000/svg">
<rect width="6400" height="1600" fill="#202020"/>
<rect x="817" y="454.35" width="494.793" height="374.504" rx="84" transform="rotate(-22.5 817 454.35)" fill="#1888B9"/>
<ellipse cx="1144.03" cy="582.054" rx="90.8302" ry="90.9666" transform="rotate(-22.5 1144.03 582.054)" fill="#202020"/>
<path d="M1164.3 861.475C1148.24 822.696 1166.66 778.238 1205.44 762.176L1217.12 757.336L1228.81 752.495C1267.58 736.433 1312.04 754.848 1328.1 793.626L1337.79 816.997C1353.85 855.776 1335.43 900.233 1296.65 916.296L1273.28 925.976C1234.51 942.039 1190.05 923.624 1173.99 884.845L1164.3 861.475Z" fill="#1888B9"/>
<path d="M1557.83 1150.16C1557.83 1252.06 1475.23 1334.66 1373.33 1334.66C1271.43 1334.66 1188.83 1252.06 1188.83 1150.16C1188.83 1048.26 1271.43 965.66 1373.33 965.66C1475.23 965.66 1557.83 1048.26 1557.83 1150.16ZM1274.84 1150.16C1274.84 1204.55 1318.94 1248.65 1373.33 1248.65C1427.72 1248.65 1471.82 1204.55 1471.82 1150.16C1471.82 1095.77 1427.72 1051.67 1373.33 1051.67C1318.94 1051.67 1274.84 1095.77 1274.84 1150.16Z" fill="#1888B9"/>
<path d="M1782.03 710C1782.03 673 1788.2 648.917 1800.53 637.75C1812.86 626.583 1837.28 621 1873.78 621H1885.53V657.75H1876.28C1856.11 657.75 1842.53 661.333 1835.53 668.5C1828.53 675.667 1825.03 691.417 1825.03 715.75V772C1825.03 798.667 1821.28 817.583 1813.78 828.75C1806.45 839.917 1793.28 848.167 1774.28 853.5C1793.45 858.667 1806.7 866.833 1814.03 878C1821.36 889 1825.03 907.917 1825.03 934.75V991C1825.03 1015.17 1828.53 1030.75 1835.53 1037.75C1842.7 1044.92 1856.78 1048.5 1877.78 1048.5H1885.53V1085.75H1873.78C1837.28 1085.75 1812.86 1080.08 1800.53 1068.75C1788.2 1057.42 1782.03 1033.25 1782.03 996.25V939C1782.03 914.167 1777.45 896.75 1768.28 886.75C1759.11 876.75 1743.2 871.75 1720.53 871.75H1710.78V834.5H1720.53C1743.2 834.5 1759.11 829.583 1768.28 819.75C1777.45 809.75 1782.03 792.5 1782.03 768V710ZM2234.45 808.25C2234.45 853.25 2241.78 888.583 2256.45 914.25C2271.28 939.917 2291.37 952.75 2316.7 952.75C2342.2 952.75 2362.28 939.917 2376.95 914.25C2391.78 888.417 2399.2 853.083 2399.2 808.25C2399.2 763.25 2391.78 727.917 2376.95 702.25C2362.28 676.417 2342.2 663.5 2316.7 663.5C2291.37 663.5 2271.28 676.333 2256.45 702C2241.78 727.667 2234.45 763.083 2234.45 808.25ZM2185.2 808.25C2185.2 749.417 2196.87 703.5 2220.2 670.5C2243.53 637.5 2275.7 621 2316.7 621C2357.7 621 2389.87 637.667 2413.2 671C2436.7 704.167 2448.45 749.917 2448.45 808.25C2448.45 866.75 2436.7 912.667 2413.2 946C2389.87 979.167 2357.7 995.75 2316.7 995.75C2275.87 995.75 2243.7 979.167 2220.2 946C2196.87 912.667 2185.2 866.75 2185.2 808.25ZM2771.62 753.5C2781.79 735.167 2793.12 721.917 2805.62 713.75C2818.12 705.417 2833.12 701.25 2850.62 701.25C2883.12 701.25 2909.04 714.5 2928.37 741C2947.87 767.5 2957.62 803.25 2957.62 848.25C2957.62 893.417 2947.87 929.333 2928.37 956C2908.87 982.5 2882.95 995.75 2850.62 995.75C2832.95 995.75 2818.04 991.75 2805.87 983.75C2793.7 975.75 2782.29 962.5 2771.62 944V1092.5H2726.62V711H2771.62V753.5ZM2842.87 955.25C2864.2 955.25 2880.95 945.833 2893.12 927C2905.45 908 2911.62 881.75 2911.62 848.25C2911.62 814.917 2905.45 788.833 2893.12 770C2880.95 751.167 2864.2 741.75 2842.87 741.75C2820.04 741.75 2802.54 750.917 2790.37 769.25C2778.37 787.417 2772.37 813.75 2772.37 848.25C2772.37 882.917 2778.37 909.417 2790.37 927.75C2802.54 946.083 2820.04 955.25 2842.87 955.25ZM3405.79 889.75V846.25C3394.46 852.583 3375.46 857.583 3348.79 861.25C3339.29 862.583 3331.96 863.75 3326.79 864.75C3311.12 867.75 3300.04 872.667 3293.54 879.5C3287.21 886.333 3284.04 896.417 3284.04 909.75C3284.04 924.583 3287.79 935.833 3295.29 943.5C3302.79 951 3313.87 954.75 3328.54 954.75C3350.87 954.75 3369.29 948.667 3383.79 936.5C3398.46 924.333 3405.79 908.75 3405.79 889.75ZM3411.04 950.25C3398.04 964.917 3384.04 975.917 3369.04 983.25C3354.04 990.583 3337.96 994.25 3320.79 994.25C3295.12 994.25 3275.04 987.167 3260.54 973C3246.21 958.667 3239.04 938.917 3239.04 913.75C3239.04 885.917 3246.46 865.25 3261.29 851.75C3276.12 838.083 3301.79 829.083 3338.29 824.75C3342.79 824.25 3349.12 823.5 3357.29 822.5C3390.62 818.833 3407.29 805.75 3407.29 783.25C3407.29 768.917 3402.62 758.333 3393.29 751.5C3383.96 744.667 3369.54 741.25 3350.04 741.25C3330.37 741.25 3315.54 745.417 3305.54 753.75C3295.71 762.083 3290.79 774.5 3290.79 791H3250.29V787.75C3250.29 760.917 3259.29 739.833 3277.29 724.5C3295.29 709 3320.04 701.25 3351.54 701.25C3385.37 701.25 3410.37 708 3426.54 721.5C3442.87 735 3451.04 755.917 3451.04 784.25V926.5C3451.04 937.667 3452.29 945 3454.79 948.5C3457.29 952 3461.62 953.75 3467.79 953.75C3468.79 953.75 3470.12 953.667 3471.79 953.5C3473.62 953.167 3475.87 952.75 3478.54 952.25V987C3473.54 988.5 3469.04 989.5 3465.04 990C3461.21 990.667 3457.37 991 3453.54 991C3439.37 991 3428.71 987.75 3421.54 981.25C3414.54 974.583 3411.04 964.75 3411.04 951.75V950.25ZM3795.21 848.25C3795.21 881.75 3801.29 908 3813.46 927C3825.79 945.833 3842.63 955.25 3863.96 955.25C3886.79 955.25 3904.21 946.083 3916.21 927.75C3928.38 909.417 3934.46 882.917 3934.46 848.25C3934.46 813.75 3928.38 787.417 3916.21 769.25C3904.21 750.917 3886.79 741.75 3863.96 741.75C3842.63 741.75 3825.79 751.167 3813.46 770C3801.29 788.833 3795.21 814.917 3795.21 848.25ZM3934.96 753.5V711H3980.21V1092.5H3935.46V944C3925.13 962.333 3913.71 975.583 3901.21 983.75C3888.88 991.75 3873.88 995.75 3856.21 995.75C3823.88 995.75 3797.96 982.5 3778.46 956C3758.96 929.333 3749.21 893.417 3749.21 848.25C3749.21 803.25 3758.88 767.5 3778.21 741C3797.71 714.5 3823.71 701.25 3856.21 701.25C3873.71 701.25 3888.71 705.417 3901.21 713.75C3913.71 721.917 3924.96 735.167 3934.96 753.5ZM4496.38 711V986H4453.38V944C4444.38 961.333 4433.05 974.333 4419.38 983C4405.88 991.5 4389.96 995.75 4371.63 995.75C4353.3 995.75 4337.55 992.583 4324.38 986.25C4311.38 979.917 4301.3 970.583 4294.13 958.25C4290.13 951.417 4287.21 943.5 4285.38 934.5C4283.71 925.333 4282.88 911.083 4282.88 891.75V878V711H4328.13V887.75C4328.13 911.583 4332.05 928.75 4339.88 939.25C4347.71 949.583 4360.46 954.75 4378.13 954.75C4401.3 954.75 4419.3 947.333 4432.13 932.5C4444.96 917.667 4451.38 896.75 4451.38 869.75V711H4496.38ZM4842.3 823.75H4976.05C4976.05 797.417 4970.3 777 4958.8 762.5C4947.3 748 4931.22 740.75 4910.55 740.75C4890.05 740.75 4873.88 748 4862.05 762.5C4850.22 776.833 4843.63 797.25 4842.3 823.75ZM4842.3 861.5V863C4842.3 891.5 4848.63 914 4861.3 930.5C4873.97 947 4891.22 955.25 4913.05 955.25C4928.05 955.25 4940.8 951.083 4951.3 942.75C4961.97 934.25 4969.3 922.417 4973.3 907.25H5018.05C5012.88 934.25 5000.3 955.75 4980.3 971.75C4960.3 987.75 4935.97 995.75 4907.3 995.75C4872.97 995.75 4845.72 982.583 4825.55 956.25C4805.38 929.917 4795.3 893.917 4795.3 848.25C4795.3 803.25 4805.55 767.5 4826.05 741C4846.72 714.5 4874.3 701.25 4908.8 701.25C4944.8 701.25 4972.8 713.5 4992.8 738C5012.97 762.5 5023.05 796.667 5023.05 840.5C5023.05 846.333 5022.97 850.75 5022.8 853.75C5022.8 856.583 5022.72 859.167 5022.55 861.5H4842.3ZM5443.72 710V768C5443.72 792.667 5448.14 810 5456.97 820C5465.97 830 5481.39 835 5503.22 835C5504.22 835 5505.97 834.917 5508.47 834.75C5510.97 834.583 5512.97 834.5 5514.47 834.5V871.75H5504.72C5482.22 871.75 5466.39 876.75 5457.22 886.75C5448.22 896.583 5443.72 914 5443.72 939V996.25C5443.72 1033.25 5437.47 1057.42 5424.97 1068.75C5412.47 1080.08 5387.97 1085.75 5351.47 1085.75H5339.72V1048.5H5349.47C5369.64 1048.5 5383.22 1044.92 5390.22 1037.75C5397.22 1030.58 5400.72 1015 5400.72 991V934.75C5400.72 907.417 5404.3 888.333 5411.47 877.5C5418.8 866.5 5431.97 858.5 5450.97 853.5C5431.97 848.333 5418.8 840.333 5411.47 829.5C5404.3 818.5 5400.72 799.333 5400.72 772V715.75C5400.72 691.583 5397.22 675.917 5390.22 668.75C5383.22 661.417 5369.64 657.75 5349.47 657.75H5339.72V621H5351.47C5388.14 621 5412.64 626.667 5424.97 638C5437.47 649.167 5443.72 673.167 5443.72 710Z" fill="white"/>
</svg>
