<svg width="4096" height="4096" viewBox="0 0 4096 4096" fill="none" xmlns="http://www.w3.org/2000/svg">
<g clip-path="url(#clip0_6_24)">
<line x1="1061" y1="2374" x2="1061" y2="3487" stroke="#1888B9" stroke-width="202" stroke-linecap="round"/>
<line x1="2048" y1="1353" x2="2048" y2="3487" stroke="#1888B9" stroke-width="202" stroke-linecap="round"/>
<line x1="3035" y1="2892" x2="3035" y2="3487" stroke="#1888B9" stroke-width="202" stroke-linecap="round"/>
<path d="M1554 1925.5C1554 2198.05 1333.05 2419 1060.5 2419C787.947 2419 567 2198.05 567 1925.5C567 1652.95 787.947 1432 1060.5 1432C1333.05 1432 1554 1652.95 1554 1925.5ZM823.726 1925.5C823.726 2056.27 929.734 2162.27 1060.5 2162.27C1191.27 2162.27 1297.27 2056.27 1297.27 1925.5C1297.27 1794.73 1191.27 1688.73 1060.5 1688.73C929.734 1688.73 823.726 1794.73 823.726 1925.5Z" fill="#1888B9"/>
<path d="M2541.5 1001.5C2541.5 1274.05 2320.55 1495 2048 1495C1775.45 1495 1554.5 1274.05 1554.5 1001.5C1554.5 728.947 1775.45 508 2048 508C2320.55 508 2541.5 728.947 2541.5 1001.5ZM1811.23 1001.5C1811.23 1132.27 1917.23 1238.27 2048 1238.27C2178.77 1238.27 2284.77 1132.27 2284.77 1001.5C2284.77 870.734 2178.77 764.726 2048 764.726C1917.23 764.726 1811.23 870.734 1811.23 1001.5Z" fill="#1888B9"/>
<path d="M3529 2419.5C3529 2692.05 3308.05 2913 3035.5 2913C2762.95 2913 2542 2692.05 2542 2419.5C2542 2146.95 2762.95 1926 3035.5 1926C3308.05 1926 3529 2146.95 3529 2419.5ZM2798.73 2419.5C2798.73 2550.27 2904.73 2656.27 3035.5 2656.27C3166.27 2656.27 3272.27 2550.27 3272.27 2419.5C3272.27 2288.73 3166.27 2182.73 3035.5 2182.73C2904.73 2182.73 2798.73 2288.73 2798.73 2419.5Z" fill="#1888B9"/>
</g>
<defs>
<clipPath id="clip0_6_24">
<rect width="4096" height="4096" fill="white"/>
</clipPath>
</defs>
</svg>
