<svg width="4096" height="4096" viewBox="0 0 4096 4096" fill="none" xmlns="http://www.w3.org/2000/svg">
<g clip-path="url(#clip0_2_26)">
<rect width="4096" height="4096" rx="2048" fill="#202020"/>
<rect x="805.465" y="1047.77" width="1432.27" height="1084.08" rx="245" transform="rotate(-22.5 805.465 1047.77)" fill="#1888B9"/>
<ellipse cx="1752.11" cy="1417.44" rx="262.926" ry="263.321" transform="rotate(-22.5 1752.11 1417.44)" fill="#202020"/>
<path d="M1802.39 2205.95C1760.54 2104.92 1808.52 1989.1 1909.55 1947.25L1963.69 1924.82L2017.84 1902.39C2118.87 1860.54 2234.69 1908.52 2276.54 2009.55L2321.4 2117.84C2363.25 2218.87 2315.27 2334.7 2214.24 2376.54L2105.95 2421.4C2004.92 2463.25 1889.09 2415.27 1847.25 2314.24L1802.39 2205.95Z" fill="#1888B9"/>
<path d="M2951 3061.5C2951 3356.7 2711.92 3596 2417 3596C2122.08 3596 1883 3356.7 1883 3061.5C1883 2766.3 2122.08 2527 2417 2527C2711.92 2527 2951 2766.3 2951 3061.5ZM2131.94 3061.5C2131.94 3219.08 2259.57 3346.83 2417 3346.83C2574.43 3346.83 2702.06 3219.08 2702.06 3061.5C2702.06 2903.92 2574.43 2776.17 2417 2776.17C2259.57 2776.17 2131.94 2903.92 2131.94 3061.5Z" fill="#1888B9"/>
</g>
<defs>
<clipPath id="clip0_2_26">
<rect width="4096" height="4096" fill="white"/>
</clipPath>
</defs>
</svg>
