<svg width="4096" height="4096" viewBox="0 0 4096 4096" fill="none" xmlns="http://www.w3.org/2000/svg">
<g clip-path="url(#clip0_101_10)">
<path d="M1319 839H2420C2709.95 839 2945 1074.05 2945 1364V3088C2945 3181.34 2869.34 3257 2776 3257H1319C1225.66 3257 1150 3181.34 1150 3088V1008C1150 914.664 1225.66 839 1319 839Z" stroke="#202020" stroke-width="150"/>
<path d="M1782.35 2038.28C1669.29 1948.14 1772.35 1769.63 1906.94 1822.47L2001.45 1859.58C2031.05 1871.2 2063.94 1871.2 2093.54 1859.58L2188.05 1822.47C2322.64 1769.63 2425.7 1948.14 2312.65 2038.28L2233.26 2101.57C2208.4 2121.4 2191.95 2149.89 2187.21 2181.33L2172.09 2281.73C2150.56 2424.71 1944.44 2424.71 1922.9 2281.73L1907.78 2181.33C1903.04 2149.89 1886.6 2121.4 1861.73 2101.57L1782.35 2038.28Z" fill="#FF7F7F"/>
<line x1="1352" y1="3452" x2="2732" y2="3452" stroke="#FF8080" stroke-width="100" stroke-linecap="round"/>
</g>
<defs>
<clipPath id="clip0_101_10">
<rect width="4096" height="4096" fill="white"/>
</clipPath>
</defs>
</svg>
